<svg width="1392" height="1152" xmlns="http://www.w3.org/2000/svg"><view id="AdminConsole" viewBox="1252 702 42 42"/><svg width="42" height="42" viewBox="0 0 42 42" x="1252" y="702" xmlns="http://www.w3.org/2000/svg"><defs><style>.aacls-1,.abcls-1,.accls-1,.aicls-1,.ajcls-1,.amcls-1,.ancls-1,.aocls-1,.arcls-1,.atcls-1,.aucls-2,.avcls-1,.awcls-1,.azcls-1,.bacls-1,.bbcls-1{fill:#fff}</style></defs><circle id="aaEllipse_10213-5" data-name="Ellipse 10213-5" cx="21" cy="21" r="21" style="fill:#5c5ce0"/><path class="aacls-1" d="M19.455 26.985a9.818 9.818 0 0 1 1.385-.5 7.489 7.489 0 0 1-.666-1.383h-.692a4.532 4.532 0 0 0-.663-1.61l.919-.918a7.2 7.2 0 0 1 .077-.955l-.558-.558a.448.448 0 0 0-.634 0l-1.117 1.118a4.532 4.532 0 0 0-1.61-.663v-1.57a.448.448 0 0 0-.448-.448h-.9a.448.448 0 0 0-.448.448v1.57a4.532 4.532 0 0 0-1.61.663l-1.117-1.118a.448.448 0 0 0-.634 0l-.68.68a.448.448 0 0 0 0 .634l1.118 1.117a4.532 4.532 0 0 0-.663 1.61H8.948a.448.448 0 0 0-.448.448v.9a.448.448 0 0 0 .448.448h1.57a4.532 4.532 0 0 0 .663 1.61l-1.118 1.117a.448.448 0 0 0 0 .634l.68.68a.448.448 0 0 0 .634 0l1.117-1.118a4.532 4.532 0 0 0 1.61.663v1.57a.448.448 0 0 0 .448.448h.9a.448.448 0 0 0 .448-.448v-1.57a4.284 4.284 0 0 0 .484-.147 5.892 5.892 0 0 1 3.071-3.352ZM15 27.75A1.75 1.75 0 1 1 16.75 26 1.75 1.75 0 0 1 15 27.75Zm2.384-12.992 1.741.709a5.437 5.437 0 0 0 .007 2.085l-1.744.733a.536.536 0 0 0-.287.7l.446 1.061a.537.537 0 0 0 .7.287L20 19.6c.1.14.217.259.325.389a5.031 5.031 0 0 1 1.926-2.217A2.6 2.6 0 1 1 27.1 16.5a2.586 2.586 0 0 1-.16.869A4.78 4.78 0 0 1 29.5 19.7l1.3.532a.536.536 0 0 0 .7-.293l.405-.994a.536.536 0 0 0-.294-.7l-1.741-.71a5.432 5.432 0 0 0-.007-2.084l1.745-.734a.537.537 0 0 0 .286-.7l-.446-1.06a.537.537 0 0 0-.7-.287l-1.745.734a5.438 5.438 0 0 0-1.484-1.463l.71-1.74a.537.537 0 0 0-.3-.7l-.994-.4a.537.537 0 0 0-.7.294l-.709 1.741a5.432 5.432 0 0 0-2.084.007l-.734-1.745a.537.537 0 0 0-.7-.286l-1.061.446a.538.538 0 0 0-.287.7l.734 1.744a5.452 5.452 0 0 0-1.462 1.485l-1.741-.71a.537.537 0 0 0-.7.294l-.405.994a.537.537 0 0 0 .298.693Z"/><path class="aacls-1" d="M26.872 27.559v-1.142a.668.668 0 0 1 .171-.433 5.13 5.13 0 0 0 1.166-3.2c0-2.422-1.285-3.776-3.226-3.776s-3.262 1.407-3.262 3.776a5.186 5.186 0 0 0 1.222 3.2.673.673 0 0 1 .171.433v1.138a.667.667 0 0 1-.582.673c-3.9.339-4.509 3.007-4.509 4.059 0 .117.013.577.022.692h13.913s.012-.575.012-.692c0-1.008-.689-3.666-4.518-4.055a.67.67 0 0 1-.58-.673Z"/></svg><view id="AdobeExperienceCloud" viewBox="1152 0 240 234"/><svg data-name="Layer 1" viewBox="0 0 240 234" width="240" height="234" x="1152" xmlns="http://www.w3.org/2000/svg"><rect height="234" rx="42.5" width="240" fill="#fa0f00"/><path d="M186.617 175.95h-28.506a6.243 6.243 0 0 1-5.847-3.769l-30.947-72.359a1.364 1.364 0 0 0-2.611-.034L99.42 145.731a1.635 1.635 0 0 0 1.506 2.269h21.2a3.27 3.27 0 0 1 3.01 1.994l9.281 20.655a3.812 3.812 0 0 1-3.507 5.301H53.734a3.518 3.518 0 0 1-3.213-4.904l49.09-116.902A6.639 6.639 0 0 1 105.843 50h28.314a6.628 6.628 0 0 1 6.232 4.144l49.43 116.902a3.517 3.517 0 0 1-3.202 4.904z" data-name="256" fill="#fff"/></svg><view id="AdobeExperiencePlatform" viewBox="1152 234 240 234"/><svg data-name="Layer 1" viewBox="0 0 240 234" width="240" height="234" x="1152" y="234" xmlns="http://www.w3.org/2000/svg"><rect height="234" rx="42.5" width="240" fill="#000b1d"/><path d="M186.617 175.95h-28.506a6.243 6.243 0 0 1-5.847-3.769l-30.947-72.359a1.364 1.364 0 0 0-2.611-.034L99.42 145.731a1.635 1.635 0 0 0 1.506 2.269h21.2a3.27 3.27 0 0 1 3.01 1.994l9.281 20.655a3.812 3.812 0 0 1-3.507 5.301H53.734a3.518 3.518 0 0 1-3.213-4.904l49.09-116.902A6.639 6.639 0 0 1 105.843 50h28.314a6.628 6.628 0 0 1 6.232 4.144l49.43 116.902a3.517 3.517 0 0 1-3.202 4.904z" data-name="256" fill="#fa0f00"/></svg><view id="AdobeExperienceSubCloud" viewBox="1152 468 240 234"/><svg data-name="Layer 1" viewBox="0 0 240 234" width="240" height="234" x="1152" y="468" xmlns="http://www.w3.org/2000/svg"><rect height="234" rx="42.5" width="240" fill="#fff"/><path d="M186.617 175.95h-28.506a6.243 6.243 0 0 1-5.847-3.769l-30.947-72.359a1.364 1.364 0 0 0-2.611-.034L99.42 145.731a1.635 1.635 0 0 0 1.506 2.269h21.2a3.27 3.27 0 0 1 3.01 1.994l9.281 20.655a3.812 3.812 0 0 1-3.507 5.301H53.734a3.518 3.518 0 0 1-3.213-4.904l49.09-116.902A6.639 6.639 0 0 1 105.843 50h28.314a6.628 6.628 0 0 1 6.232 4.144l49.43 116.902a3.517 3.517 0 0 1-3.202 4.904z" data-name="256" fill="#fa0f00"/></svg><view id="AppDevelopment" viewBox="1294 702 42 42"/><svg width="42" height="42" viewBox="0 0 42 42" x="1294" y="702" xmlns="http://www.w3.org/2000/svg"><g id="ab_42px_Circle" data-name="42px@Circle"><circle id="abEllipse_10213-20" data-name="Ellipse 10213-20" cx="21" cy="21" r="21" fill="#505050"/></g><g id="ab_24px_Icons" data-name="24px@Icons"><path class="abcls-1" transform="rotate(-180 21 15.5)" d="M20 15h2v1h-2z"/><path class="abcls-1" d="M29.857 11h-6.714A1.143 1.143 0 0 0 22 12.143V15h3.092a1.5 1.5 0 1 1 0 1H22v2.857A1.143 1.143 0 0 0 23.143 20h6.714A1.143 1.143 0 0 0 31 18.857v-6.714A1.143 1.143 0 0 0 29.857 11zM16 16.908V20h2.857A1.143 1.143 0 0 0 20 18.857V16h-3.092a1.5 1.5 0 0 1-.908.908z"/><path class="abcls-1" d="M18.857 11h-6.714A1.143 1.143 0 0 0 11 12.143v6.714A1.143 1.143 0 0 0 12.143 20H15v-3.092A1.5 1.5 0 1 1 16.908 15H20v-2.857A1.143 1.143 0 0 0 18.857 11zM16 26v-6h-1v6a1 1 0 0 0 1 1h6v-1zm13.857-4h-6.714A1.143 1.143 0 0 0 22 23.143V26h3.092a1.5 1.5 0 1 1 0 1H22v2.857A1.143 1.143 0 0 0 23.143 31h6.714A1.143 1.143 0 0 0 31 29.857v-6.714A1.143 1.143 0 0 0 29.857 22z"/></g></svg><view id="Asset" viewBox="1336 702 42 42"/><svg width="42" height="42" viewBox="0 0 42 42" x="1336" y="702" xmlns="http://www.w3.org/2000/svg"><g id="ac_42px_Circle" data-name="42px@Circle"><circle id="acEllipse_10213-6" data-name="Ellipse 10213-6" cx="21" cy="21" r="21" fill="#7cc33f"/></g><g id="ac_24px_Icons" data-name="24px@Icons"><circle class="accls-1" cx="23.25" cy="15.75" r="1.25"/><path class="accls-1" d="M20 20v11a1 1 0 0 0 1 1h10a1 1 0 0 0 1-1V20a1 1 0 0 0-1-1H21a1 1 0 0 0-1 1zm3 1.75a.25.25 0 0 1-.25.25h-1.5a.25.25 0 0 1-.25-.25v-1.5a.25.25 0 0 1 .25-.25h1.5a.25.25 0 0 1 .25.25zm0 3a.25.25 0 0 1-.25.25h-1.5a.25.25 0 0 1-.25-.25v-1.5a.25.25 0 0 1 .25-.25h1.5a.25.25 0 0 1 .25.25zm0 3a.25.25 0 0 1-.25.25h-1.5a.25.25 0 0 1-.25-.25v-1.5a.25.25 0 0 1 .25-.25h1.5a.25.25 0 0 1 .25.25zm0 3a.25.25 0 0 1-.25.25h-1.5a.25.25 0 0 1-.25-.25v-1.5a.25.25 0 0 1 .25-.25h1.5a.25.25 0 0 1 .25.25zm8-9a.25.25 0 0 1-.25.25h-1.5a.25.25 0 0 1-.25-.25v-1.5a.25.25 0 0 1 .25-.25h1.5a.25.25 0 0 1 .25.25zm0 3a.25.25 0 0 1-.25.25h-1.5a.25.25 0 0 1-.25-.25v-1.5a.25.25 0 0 1 .25-.25h1.5a.25.25 0 0 1 .25.25zm0 3a.25.25 0 0 1-.25.25h-1.5a.25.25 0 0 1-.25-.25v-1.5a.25.25 0 0 1 .25-.25h1.5a.25.25 0 0 1 .25.25zm0 3a.25.25 0 0 1-.25.25h-1.5a.25.25 0 0 1-.25-.25v-1.5a.25.25 0 0 1 .25-.25h1.5a.25.25 0 0 1 .25.25zM28.75 26h-5.5a.25.25 0 0 1-.25-.25v-.5a.25.25 0 0 1 .25-.25h5.5a.25.25 0 0 1 .25.25v.5a.25.25 0 0 1-.25.25z"/><path class="accls-1" d="M27 11H11a1 1 0 0 0-1 1v12a1 1 0 0 0 1 1h7v-5a2.982 2.982 0 0 1 .513-1.676L16.8 16.615a1 1 0 0 0-1.414 0L12 20.005V13h14v4h2v-5a1 1 0 0 0-1-1z"/><path class="accls-1" d="M20 20v11a1 1 0 0 0 1 1h10a1 1 0 0 0 1-1V20a1 1 0 0 0-1-1H21a1 1 0 0 0-1 1zm3 1.75a.25.25 0 0 1-.25.25h-1.5a.25.25 0 0 1-.25-.25v-1.5a.25.25 0 0 1 .25-.25h1.5a.25.25 0 0 1 .25.25zm0 3a.25.25 0 0 1-.25.25h-1.5a.25.25 0 0 1-.25-.25v-1.5a.25.25 0 0 1 .25-.25h1.5a.25.25 0 0 1 .25.25zm0 3a.25.25 0 0 1-.25.25h-1.5a.25.25 0 0 1-.25-.25v-1.5a.25.25 0 0 1 .25-.25h1.5a.25.25 0 0 1 .25.25zm0 3a.25.25 0 0 1-.25.25h-1.5a.25.25 0 0 1-.25-.25v-1.5a.25.25 0 0 1 .25-.25h1.5a.25.25 0 0 1 .25.25zm8-9a.25.25 0 0 1-.25.25h-1.5a.25.25 0 0 1-.25-.25v-1.5a.25.25 0 0 1 .25-.25h1.5a.25.25 0 0 1 .25.25zm0 3a.25.25 0 0 1-.25.25h-1.5a.25.25 0 0 1-.25-.25v-1.5a.25.25 0 0 1 .25-.25h1.5a.25.25 0 0 1 .25.25zm0 3a.25.25 0 0 1-.25.25h-1.5a.25.25 0 0 1-.25-.25v-1.5a.25.25 0 0 1 .25-.25h1.5a.25.25 0 0 1 .25.25zm0 3a.25.25 0 0 1-.25.25h-1.5a.25.25 0 0 1-.25-.25v-1.5a.25.25 0 0 1 .25-.25h1.5a.25.25 0 0 1 .25.25zM28.75 26h-5.5a.25.25 0 0 1-.25-.25v-.5a.25.25 0 0 1 .25-.25h5.5a.25.25 0 0 1 .25.25v.5a.25.25 0 0 1-.25.25z"/></g></svg><view id="BoxSearch" viewBox="1252 744 42 42"/><svg width="42" height="42" viewBox="0 0 42 42" x="1252" y="744" xmlns="http://www.w3.org/2000/svg"><g data-name="42px@Circle"><circle data-name="Ellipse 10213-21" cx="21" cy="21" r="21" fill="#5c5ce0"/></g><path d="m25.148 12.077-3.672-1.988a1 1 0 0 0-.952 0l-9.154 4.958a.515.515 0 0 0 0 .906l3.456 1.872zm7.509 18.886-3.392-3.392a5.048 5.048 0 1 0-1.7 1.7l3.395 3.389a1.529 1.529 0 0 0 1.7 0 1.222 1.222 0 0 0-.003-1.697zM21.9 25a3.1 3.1 0 1 1 3.1 3.1 3.1 3.1 0 0 1-3.1-3.1zm3.1-7a6.98 6.98 0 0 1 1.533.174l4.1-2.221a.515.515 0 0 0 0-.906l-3.4-1.841-10.324 5.748 2.774 1.5A6.983 6.983 0 0 1 25 18zm6 3.418V18l-2.122 1.179A7.05 7.05 0 0 1 31 21.418zM18 25a6.963 6.963 0 0 1 .583-2.789L11 18v8.412a1 1 0 0 0 .514.874L20 32v-2.107A6.975 6.975 0 0 1 18 25z" style="fill:#fff" data-name="24px@Icons"/></svg><view id="CircleAdvertisingCloud" viewBox="1294 744 42 42"/><svg width="42" height="42" viewBox="0 0 42 42" x="1294" y="744" xmlns="http://www.w3.org/2000/svg"><g data-name="42px@Circle"><circle data-name="Ellipse 10213-9" cx="21" cy="21" r="21" fill="#fff"/></g><g data-name="24px@Icons"><path data-name="256" d="M31.024 30h-4.3a.94.94 0 0 1-.881-.569l-4.67-10.915a.206.206 0 0 0-.394 0l-2.909 6.93a.247.247 0 0 0 .227.343h3.2a.493.493 0 0 1 .454.3l1.4 3.116a.575.575 0 0 1-.529.8H10.978a.531.531 0 0 1-.485-.74l7.407-17.64a1 1 0 0 1 .94-.625h4.27a1 1 0 0 1 .94.625l7.457 17.635a.531.531 0 0 1-.483.74z" fill="#fa0f00"/></g></svg><view id="CircleExperienceCloud" viewBox="1336 744 42 42"/><svg width="42" height="42" viewBox="0 0 42 42" x="1336" y="744" xmlns="http://www.w3.org/2000/svg"><path d="M21 0a21 21 0 1 0 21 21A21 21 0 0 0 21 0z" fill="#fa0f00"/><path d="M31.024 30h-4.3a.94.94 0 0 1-.881-.569l-4.67-10.915a.206.206 0 0 0-.394 0l-2.909 6.93a.247.247 0 0 0 .227.343h3.2a.493.493 0 0 1 .454.3l1.4 3.116a.575.575 0 0 1-.529.8H10.978a.531.531 0 0 1-.485-.74l7.407-17.64a1 1 0 0 1 .94-.625h4.27a1 1 0 0 1 .94.625l7.457 17.635a.531.531 0 0 1-.483.74z" fill="#fff"/></svg><view id="CircleExperiencePlatform" viewBox="1152 802 42 42"/><svg width="42" height="42" viewBox="0 0 42 42" x="1152" y="802" xmlns="http://www.w3.org/2000/svg"><g data-name="42px@Circle"><circle data-name="Ellipse 10213-11" cx="21" cy="21" r="21" fill="#000b1d"/></g><g data-name="24px@Icons"><path data-name="256" d="M31.024 30h-4.3a.94.94 0 0 1-.881-.569l-4.67-10.915a.206.206 0 0 0-.394 0l-2.909 6.93a.247.247 0 0 0 .227.343h3.2a.493.493 0 0 1 .454.3l1.4 3.116a.575.575 0 0 1-.529.8H10.978a.531.531 0 0 1-.485-.74l7.407-17.64a1 1 0 0 1 .94-.625h4.27a1 1 0 0 1 .94.625l7.457 17.635a.531.531 0 0 1-.483.74z" fill="#fa0f00"/></g></svg><view id="Commerce" viewBox="1194 802 42 42"/><svg width="42" height="42" viewBox="0 0 42 42" x="1194" y="802" xmlns="http://www.w3.org/2000/svg"><g data-name="42px@Circle"><circle data-name="Ellipse 10213-5" cx="21" cy="21" r="21" fill="#3da64e"/></g><path d="m32.854 17.49-1.75-6.127a.5.5 0 0 0-.481-.363H11.377a.5.5 0 0 0-.48.363L9.145 17.49a.4.4 0 0 0 .384.51h22.94a.4.4 0 0 0 .384-.51ZM12.5 17h-2l1.5-5h2l-1.5 5Zm4.75 0h-2l.75-5h2l-.75 5ZM22 17h-2v-5h2v5Zm2.75 0L24 12h2l.75 5h-2Zm4.75 0L28 12h2l1.5 5h-2Zm1.5 2v11a1 1 0 0 1-1 1H18V19h2v6h9v-6h2ZM13 31h-1a1 1 0 0 1-1-1V19h2v12Z" fill="#fff" data-name="24px@Icons"/></svg><view id="ContentProfile" viewBox="1236 802 42 42"/><svg width="42" height="42" viewBox="0 0 42 42" x="1236" y="802" xmlns="http://www.w3.org/2000/svg"><g id="ai_42px_Circle" data-name="42px@Circle"><circle id="aiEllipse_10213-2" data-name="Ellipse 10213-2" cx="21" cy="21" r="21" fill="#d83790"/></g><g id="ai_24px_Icons" data-name="24px@Icons"><rect class="aicls-1" x="14" y="15" width="10" height="2" rx=".25"/><path class="aicls-1" d="M26 19a7 7 0 1 0 7 7 7 7 0 0 0-7-7zm3.8 10.217a4.1 4.1 0 0 0-2.036-.711.481.481 0 0 1-.417-.483v-.7a.484.484 0 0 1 .123-.311 3.686 3.686 0 0 0 .838-2.3c0-1.74-.923-2.712-2.317-2.712s-2.343 1.01-2.343 2.712a3.727 3.727 0 0 0 .878 2.3.479.479 0 0 1 .123.311v.7a.478.478 0 0 1-.418.483 4.022 4.022 0 0 0-2.05.688 5 5 0 1 1 7.619.028z"/><path class="aicls-1" d="M12 27V13h14v4.1a8.906 8.906 0 0 1 2 .234V12a1 1 0 0 0-1-1H11a1 1 0 0 0-1 1v16a1 1 0 0 0 1 1h6.632a8.759 8.759 0 0 1-.472-2z"/><path class="aicls-1" d="M14.5 19a.5.5 0 0 0-.5.5v5a.5.5 0 0 0 .5.5h2.66a8.877 8.877 0 0 1 2.831-5.546A.5.5 0 0 0 19.5 19z"/></g></svg><view id="DataAnalytics" viewBox="1278 802 42 42"/><svg width="42" height="42" viewBox="0 0 42 42" x="1278" y="802" xmlns="http://www.w3.org/2000/svg"><g id="aj_42px_Circle" data-name="42px@Circle"><circle id="ajEllipse_10213" data-name="Ellipse 10213" cx="21" cy="21" r="21" fill="#864ccc"/></g><g id="aj_24px_Icons" data-name="24px@Icons"><rect class="ajcls-1" x="12" y="22.5" width="2" height="6.5" rx=".5"/><rect class="ajcls-1" x="16" y="18.5" width="2" height="10.5" rx=".5"/><rect class="ajcls-1" x="20" y="19.5" width="2" height="9.5" rx=".5"/><rect class="ajcls-1" x="24" y="15" width="2" height="14" rx=".5"/><rect class="ajcls-1" x="28" y="16" width="2" height="13" rx=".5"/><path class="ajcls-1" d="M13 20.25h-2a.75.75 0 0 1 0-1.5h1.663l3.776-4.25a.749.749 0 0 1 .9-.173l3.408 1.7 3.633-5.449a.75.75 0 0 1 1.042-.2l.028.02 3.629 2.722 1.586-.793a.75.75 0 0 1 .67 1.342l-2 1a.748.748 0 0 1-.785-.071l-3.365-2.524-3.561 5.34a.752.752 0 0 1-.959.255l-3.486-1.743L13.561 20a.755.755 0 0 1-.561.25z"/></g></svg><view id="DynamicChat" viewBox="1320 802 42 42"/><svg width="42" height="42" viewBox="0 0 42 42" x="1320" y="802" xmlns="http://www.w3.org/2000/svg"><circle data-name="Ellipse 10213-4" cx="21" cy="21" r="21" style="fill:#d83790"/><path d="M31 11H20a2 2 0 0 0-2 2v4h-7a2 2 0 0 0-2 2v7a2 2 0 0 0 2 2h1v4.396a.25.25 0 0 0 .25.25.243.243 0 0 0 .175-.074L17 28h5a2 2 0 0 0 2-2v-4h1l4.575 4.573a.243.243 0 0 0 .175.074.25.25 0 0 0 .25-.25V22h1a2 2 0 0 0 2-2v-7a2 2 0 0 0-2-2ZM12.5 23.75a1.25 1.25 0 1 1 1.25-1.25 1.25 1.25 0 0 1-1.25 1.25Zm4 0a1.25 1.25 0 1 1 1.25-1.25 1.25 1.25 0 0 1-1.25 1.25Zm4 0a1.25 1.25 0 1 1 1.25-1.25 1.25 1.25 0 0 1-1.25 1.25Zm10.5-4a.25.25 0 0 1-.25.25H28.7a.5.5 0 0 0-.5.5v2.3l-2.333-2.504a1 1 0 0 0-.711-.296H24v-1a2 2 0 0 0-2-2h-2v-3.75a.25.25 0 0 1 .25-.25h10.5a.25.25 0 0 1 .25.25Z" style="fill:#fff"/></svg><view id="Efficient" viewBox="1362 802 18 18"/><svg height="18" width="18" viewBox="0 0 18 18" x="1362" y="802" xmlns="http://www.w3.org/2000/svg"><path d="M4.587 6.782a.75.75 0 0 1-.275-1.45A39.582 39.582 0 0 1 9.055 3.8a30.324 30.324 0 0 1 4.295-.665.75.75 0 0 1 .096 1.497 29.54 29.54 0 0 0-4.06.631 38.742 38.742 0 0 0-4.521 1.466.75.75 0 0 1-.278.053Zm.159-3.079a.75.75 0 0 1-.276-1.45A38.819 38.819 0 0 1 9.056.8c.4-.09.783-.168 1.146-.236a.75.75 0 0 1 .277 1.474c-.346.066-.714.14-1.095.226A37.927 37.927 0 0 0 5.022 3.65a.75.75 0 0 1-.276.053ZM6.75 16.5v.44a.75.75 0 0 0 .22.53l.31.31a.75.75 0 0 0 .53.22h2.38a.75.75 0 0 0 .53-.22l.31-.31a.75.75 0 0 0 .22-.53v-.44a.75.75 0 0 0 .75-.75v-.972a.75.75 0 0 0-.75-.75h-4.5a.75.75 0 0 0-.75.75v.972a.762.762 0 0 0 .75.75Zm-1.9-6.823a.75.75 0 0 1-.276-1.45A36.304 36.304 0 0 1 9.055 6.8a30.324 30.324 0 0 1 4.295-.665.75.75 0 0 1 .096 1.497 29.538 29.538 0 0 0-4.06.631 35.52 35.52 0 0 0-4.257 1.36.743.743 0 0 1-.279.054Zm1.9 1.198V13h1.5v-2.125a1.85 1.85 0 0 0-.207-.84c-.536.17-1.06.35-1.5.509a.373.373 0 0 1 .207.331ZM13.227 9h-1.6a1.877 1.877 0 0 0-1.875 1.875V13h1.5v-2.125a.376.376 0 0 1 .375-.375h1.6a.75.75 0 0 0 0-1.5Z" style="fill:#6e6e6e"/></svg><view id="EmailGear" viewBox="1152 844 42 42"/><svg width="42" height="42" viewBox="0 0 42 42" x="1152" y="844" xmlns="http://www.w3.org/2000/svg"><g id="am_42px_Circle" data-name="42px@Circle"><circle id="amEllipse_10213-14" data-name="Ellipse 10213-14" cx="21" cy="21" r="21" fill="#5c5ce0"/></g><g id="am_24px_Icons" data-name="24px@Icons"><path class="amcls-1" d="M32.4 26.012h-.9a.148.148 0 0 1-.142-.113 4.444 4.444 0 0 0-.5-1.2.147.147 0 0 1 .022-.18l.637-.635a.6.6 0 0 0 0-.848l-.551-.552a.6.6 0 0 0-.848 0l-.636.636a.145.145 0 0 1-.18.021 4.441 4.441 0 0 0-1.2-.5.146.146 0 0 1-.112-.142v-.9a.6.6 0 0 0-.6-.6h-.78a.6.6 0 0 0-.6.6v.9a.147.147 0 0 1-.113.141 4.476 4.476 0 0 0-1.2.5.145.145 0 0 1-.18-.021l-.638-.634a.6.6 0 0 0-.848 0l-.55.554a.6.6 0 0 0 0 .849l.635.633a.147.147 0 0 1 .022.18 4.444 4.444 0 0 0-.5 1.2.148.148 0 0 1-.142.113h-.9a.6.6 0 0 0-.6.6v.779a.6.6 0 0 0 .6.6h.9a.149.149 0 0 1 .142.112 4.428 4.428 0 0 0 .5 1.2.145.145 0 0 1-.021.18l-.637.634a.6.6 0 0 0 0 .849l.551.551a.6.6 0 0 0 .849 0l.636-.636a.145.145 0 0 1 .18-.021 4.462 4.462 0 0 0 1.2.5.147.147 0 0 1 .112.141v.9a.6.6 0 0 0 .6.6h.78a.6.6 0 0 0 .6-.6v-.9a.145.145 0 0 1 .112-.141 4.462 4.462 0 0 0 1.2-.5.145.145 0 0 1 .18.021l.636.636a.6.6 0 0 0 .848 0l.551-.551a.6.6 0 0 0 0-.849l-.636-.636a.147.147 0 0 1-.021-.18 4.465 4.465 0 0 0 .5-1.2.144.144 0 0 1 .141-.111h.9a.6.6 0 0 0 .6-.6v-.78a.6.6 0 0 0-.599-.6zM27 29.251A2.25 2.25 0 1 1 29.25 27 2.25 2.25 0 0 1 27 29.251zm5.878.184.005.012c0-.007.008-.011.011-.018z"/><path class="amcls-1" d="M21.12 29.436A2.1 2.1 0 0 1 19.6 28H11v-.606l7.213-5.246 1.64 1.193a1.942 1.942 0 0 0 .993.35 2.067 2.067 0 0 1 .576-1.714l.544-.549a2.1 2.1 0 0 1 2.6-.3A2.1 2.1 0 0 1 26.61 19.5h.813L31 16.9v3.983a2.049 2.049 0 0 1 1.027.538l.552.553a2.076 2.076 0 0 1 .421.613V13a1 1 0 0 0-1-1H10a1 1 0 0 0-1 1v16a1 1 0 0 0 1 1h10.882a2.062 2.062 0 0 1 .238-.564zM11 14h20v.553L21.03 21.8a.051.051 0 0 1-.059 0L11 14.553zm0 2.9 5.6 4.071-5.6 4.074z"/></g></svg><view id="EmailSend" viewBox="1194 844 42 42"/><svg width="42" height="42" viewBox="0 0 42 42" x="1194" y="844" xmlns="http://www.w3.org/2000/svg"><g id="an_42px_Circle" data-name="42px@Circle"><circle id="anEllipse_10213-15" data-name="Ellipse 10213-15" cx="21" cy="21" r="21" fill="#d83790"/></g><g id="an_24px_Icons" data-name="24px@Icons"><path class="ancls-1" d="M20 29.335a1.953 1.953 0 0 1 .033-.252L17.863 28H11v-.606l7.213-5.246 1.2.876 6.242-1.862-.259-.189L31 16.9v2.666l.311-.092a2.034 2.034 0 0 1 .617-.1h.111A1.95 1.95 0 0 1 33 19.7V13a1 1 0 0 0-1-1H10a1 1 0 0 0-1 1v16a1 1 0 0 0 1 1h10zM11 14h20v.553L21.03 21.8a.051.051 0 0 1-.059 0L11 14.553zm0 2.9 5.6 4.071-5.6 4.074z"/><path class="ancls-1" d="m31.927 21.379-13.77 4.108a.22.22 0 0 0-.035.407l3.478 1.734zm-8.818 6.983L28.345 31a.44.44 0 0 0 .59-.2L33 21.928zM22 29.336v3.351a.313.313 0 0 0 .515.238l2.351-1.981z"/></g></svg><view id="ExperienceManager" viewBox="1236 844 42 42"/><svg width="42" height="42" viewBox="0 0 42 42" x="1236" y="844" xmlns="http://www.w3.org/2000/svg"><circle id="aoEllipse_10213-16" data-name="Ellipse 10213-16" cx="21" cy="21" r="21" fill="#7cc33f"/><path class="aocls-1" d="M31 13v15H11V13zm1.25-2H9.75a.717.717 0 0 0-.75.678v17.644a.717.717 0 0 0 .75.678h22.5a.717.717 0 0 0 .75-.678V11.678a.717.717 0 0 0-.75-.678z"/><path class="aocls-1" d="M13 15h16v4H13zm7 6h9v2h-9zm0 3h9v2h-9zm-7-3h5v5h-5z"/></svg><view id="Fusion" viewBox="1278 844 42 42"/><svg width="42" height="42" viewBox="0 0 42 42" x="1278" y="844" xmlns="http://www.w3.org/2000/svg"><g data-name="42px@Circle"><circle data-name="Ellipse 10213" cx="21" cy="21" r="21" fill="#16868b"/></g><g data-name="24px@Icons" fill="#fff"><path d="M25.342 8.877a3.07 3.07 0 0 0-4.337 0 3.066 3.066 0 0 0-.456 3.733l-3.502 3.502-.337.8 1.073.46c.028.013.05.033.078.046l3.748-3.748c.482.287 1.02.44 1.564.44.785 0 1.571-.299 2.169-.897a3.071 3.071 0 0 0 0-4.336ZM23.927 11.8a1.068 1.068 0 0 1-1.507 0 1.068 1.068 0 0 1 .753-1.819 1.064 1.064 0 0 1 .754 1.82Zm4.81 5.108c-1.43 0-2.625.99-2.962 2.316h-6.573c.08.517 0 1.043-.243 1.5h6.816a3.064 3.064 0 0 0 2.962 2.316c1.69 0 3.066-1.375 3.066-3.066s-1.375-3.066-3.066-3.066Zm0 4.132a1.067 1.067 0 0 1 0-2.132 1.067 1.067 0 0 1 0 2.132Z"/><path d="M17.72 19.747c.008-.055.004-.11.001-.165a.911.911 0 0 0-.081-.368c-.092-.205-.236-.39-.465-.488l-.479-.205-.71-.305-1.33-.571 1.78-4.23c.242-.571-.506-1.038-.913-.571l-5.28 6.036a.943.943 0 0 0 .338 1.487l2.52 1.081-1.781 4.229c-.242.572.505 1.039.914.572l3.263-3.731.465-.532 1.071-1.225.48-.548a.856.856 0 0 0 .174-.336.893.893 0 0 0 .033-.13Zm7.622 7.021a3.058 3.058 0 0 0-2.169-.897 3.06 3.06 0 0 0-1.564.44l-3.992-3.992-.99 1.131 3.922 3.921a3.066 3.066 0 0 0 .456 3.733 3.07 3.07 0 0 0 4.336 0 3.071 3.071 0 0 0 0-4.336Zm-1.415 2.921a1.064 1.064 0 0 1-1.508 0 1.068 1.068 0 0 1 0-1.507 1.068 1.068 0 0 1 1.508 0 1.069 1.069 0 0 1 0 1.507Z"/></g></svg><view id="Gauge" viewBox="1320 844 42 42"/><svg width="42" height="42" viewBox="0 0 42 42" x="1320" y="844" xmlns="http://www.w3.org/2000/svg"><g data-name="42px@Circle"><circle data-name="Ellipse 10213-17" cx="21" cy="21" r="21" fill="#5c5ce0"/></g><path d="m28.846 20.525 1.411-1.71c.053-.064.089-.135.136-.2a9.874 9.874 0 0 1-.312 7.568.5.5 0 0 1-.8.128l-.765-.765a.494.494 0 0 1-.1-.539 7.846 7.846 0 0 0 .43-4.482zm-3.73-5.333A7.733 7.733 0 0 0 22.1 14.1a8.01 8.01 0 0 0-9.1 7.922 7.926 7.926 0 0 0 .588 2.983.492.492 0 0 1-.1.539l-.764.765a.5.5 0 0 1-.8-.128 9.9 9.9 0 0 1-.787-5.783 10 10 0 0 1 15.555-6.6zm3.695.25a.841.841 0 0 1 .088 1.141l-6.564 8.662a1.851 1.851 0 0 1-2.6.3 1.2 1.2 0 0 1-.108-.093 1.851 1.851 0 0 1-.1-2.617c.032-.035.066-.068.1-.1l8.042-7.295a.843.843 0 0 1 1.142.002z" style="fill:#fff" data-name="24px@Icons"/></svg><view id="GraphBarMoney" viewBox="1152 886 42 42"/><svg width="42" height="42" viewBox="0 0 42 42" x="1152" y="886" xmlns="http://www.w3.org/2000/svg"><g id="ar_42px_Circle" data-name="42px@Circle"><circle id="arEllipse_10213-5" data-name="Ellipse 10213-5" cx="21" cy="21" r="21" style="fill:#864ccc"/></g><g id="ar_24px_Icons" data-name="24px@Icons"><path class="arcls-1" d="M15 13a1 1 0 0 0-1-1h-2a1 1 0 0 0-1 1v14h4Zm5 6a1 1 0 0 0-1-1h-2a1 1 0 0 0-1 1v8h2v-5.5a.5.5 0 0 1 .5-.5H20Zm5-8a1 1 0 0 0-1-1h-2a1 1 0 0 0-1 1v10h4Zm5 3a1 1 0 0 0-1-1h-2a1 1 0 0 0-1 1v7h4ZM10 28.5v1a.5.5 0 0 0 .5.5H18v-2h-7.5a.5.5 0 0 0-.5.5Z"/><path class="arcls-1" d="M33.25 22h-13.5a.751.751 0 0 0-.75.75v8.5a.751.751 0 0 0 .75.75h13.5a.751.751 0 0 0 .75-.75v-8.5a.751.751 0 0 0-.75-.75ZM33 28.5a2.5 2.5 0 0 0-2.5 2.5h-8a2.5 2.5 0 0 0-2.5-2.5v-3a2.5 2.5 0 0 0 2.5-2.5h8a2.5 2.5 0 0 0 2.5 2.5Z"/><circle class="arcls-1" cx="26.5" cy="27" r="2"/></g></svg><view id="JourneyOrchestration" viewBox="1194 886 42 42"/><svg width="42" height="42" viewBox="0 0 42 42" x="1194" y="886" xmlns="http://www.w3.org/2000/svg"><g data-name="42px@Circle"><circle data-name="Ellipse 10213-10" cx="21" cy="21" r="21" fill="#d83790"/></g><path d="M29.983 21.342c0-.115.017-.227.017-.342a9.01 9.01 0 0 0-5.611-8.333 3.487 3.487 0 0 0-6.778 0A9.008 9.008 0 0 0 12 21c0 .115.013.227.017.342A3.492 3.492 0 0 0 13.5 28a3.459 3.459 0 0 0 1.472-.336 8.946 8.946 0 0 0 12.056 0A3.459 3.459 0 0 0 28.5 28a3.492 3.492 0 0 0 1.483-6.658zM21 12a1.5 1.5 0 1 1-1.5 1.5A1.5 1.5 0 0 1 21 12zm-7.5 14a1.5 1.5 0 1 1 1.5-1.5 1.5 1.5 0 0 1-1.5 1.5zm12.029.328a6.97 6.97 0 0 1-9.058 0A3.468 3.468 0 0 0 14 21.051V21a7.005 7.005 0 0 1 3.757-6.2 3.491 3.491 0 0 0 6.486 0A7.005 7.005 0 0 1 28 21v.051a3.468 3.468 0 0 0-2.468 5.277zM28.5 26a1.5 1.5 0 1 1 1.5-1.5 1.5 1.5 0 0 1-1.5 1.5z" fill="#fff" data-name="24px@Icons"/></svg><view id="Launch" viewBox="1236 886 42 42"/><svg width="42" height="42" viewBox="0 0 42 42" x="1236" y="886" xmlns="http://www.w3.org/2000/svg"><g id="at_42px_Circle" data-name="42px@Circle"><circle id="atEllipse_10213-18" data-name="Ellipse 10213-18" cx="21" cy="21" r="21" fill="#16878c"/></g><g id="at_24px_Icons" data-name="24px@Icons"><path id="atFill" class="atcls-1" d="M31.376 10.231a21.22 21.22 0 0 0-15.518 13.208.319.319 0 0 0 .076.332l2.293 2.293a.319.319 0 0 0 .331.077 21.039 21.039 0 0 0 13.209-15.519.332.332 0 0 0-.391-.391z"/><path id="atFill2" class="atcls-1" d="M14.765 21.7h-4.216a.321.321 0 0 1-.281-.479c.967-1.684 4.572-7.239 10.028-7.239-1.266 1.268-5.43 6.755-5.531 7.718z"/><path id="atFill3" class="atcls-1" d="M20.3 27.232v4.221a.321.321 0 0 0 .476.283c1.682-.95 7.241-4.508 7.241-10.034-1.27 1.266-6.757 5.43-7.717 5.53z"/></g></svg><view id="LocationService" viewBox="1278 886 42 42"/><svg width="42" height="42" viewBox="0 0 42 42" x="1278" y="886" xmlns="http://www.w3.org/2000/svg"><g id="au_42px_Circle" data-name="42px@Circle"><circle id="auEllipse_10213-3" data-name="Ellipse 10213-3" cx="21" cy="21" r="21" fill="#16878c"/></g><g id="au_24px_Icons" data-name="24px@Icons"><path class="aucls-2" d="M19 27a8.009 8.009 0 0 1 5.089-7.444 6.583 6.583 0 0 0 .411-2.017 7.5 7.5 0 0 0-15 0c0 4.142 7.5 13.594 7.5 13.594s.922-1.167 2.114-2.845A7.918 7.918 0 0 1 19 27zm-4.906-9.461A2.906 2.906 0 1 1 17 20.445a2.906 2.906 0 0 1-2.906-2.906z"/><path class="aucls-2" d="M27 21a6 6 0 1 0 6 6 6 6 0 0 0-6-6zm2.56 6.469-3.718 4.25a.384.384 0 0 1-.643-.4l1.254-2.977-1.774-.762a.664.664 0 0 1-.238-1.047l3.717-4.249a.384.384 0 0 1 .644.4l-1.255 2.978 1.774.761a.665.665 0 0 1 .239 1.046z"/></g></svg><view id="MarketoEngage" viewBox="1320 886 42 42"/><svg width="42" height="42" viewBox="0 0 42 42" x="1320" y="886" xmlns="http://www.w3.org/2000/svg"><circle id="avEllipse_10213-4" data-name="Ellipse 10213-4" cx="21" cy="21" r="21" style="fill:#d83790"/><path class="avcls-1" d="M27 27.526 33 24H21l6 3.526z"/><path class="avcls-1" d="M26.329 28.916 21 25.768v5.676a.556.556 0 0 0 .556.556h10.888a.556.556 0 0 0 .556-.556v-5.676l-5.329 3.148a1.141 1.141 0 0 1-1.342 0Zm-.209-6.938a.474.474 0 0 0 .212-.134.5.5 0 0 0 .12-.466l-2.74-10.612a.476.476 0 0 0-.329-.34.454.454 0 0 0-.45.12 21.66 21.66 0 0 1-9.903 5.853.297.297 0 0 0-.194.356l1.351 5.23a.281.281 0 0 0 .339.207 21.118 21.118 0 0 1 11.358-.214.466.466 0 0 0 .235 0Zm-14.788-4.975A3.019 3.019 0 0 0 9 19.998a3.126 3.126 0 0 0 .067.611c.01.051.023.103.036.153a2.854 2.854 0 0 0 3.455 2.153q.129-.032.255-.077a.311.311 0 0 0 .177-.366l-1.332-5.243a.293.293 0 0 0-.326-.226Zm7.65 9.019c-.027-.07-1.854-2.768-1.854-2.768a.6.6 0 0 0-.612-.241l-1.056.217a.58.58 0 0 0-.416.333.534.534 0 0 0 .05.513l1.754 2.67a.596.596 0 0 0 .64.234l1.081-.276a.555.555 0 0 0 .417-.666Zm8.409-16.138a7.335 7.335 0 0 1 4.037 8.523 7.412 7.412 0 0 1-.82 1.917.666.666 0 0 0 .23.914.658.658 0 0 0 .342.095.666.666 0 0 0 .572-.324 8.717 8.717 0 0 0 .966-2.263 8.664 8.664 0 0 0-4.772-10.073.666.666 0 1 0-.555 1.211Z"/><path class="avcls-1" d="M26.277 12.357a4.661 4.661 0 0 1 2.312 2.33 4.61 4.61 0 0 1 .258 3.094 4.685 4.685 0 0 1-.539 1.209.667.667 0 0 0 .229.915.658.658 0 0 0 .342.095.668.668 0 0 0 .572-.323 5.963 5.963 0 0 0-2.618-8.531.666.666 0 1 0-.556 1.21Z"/></svg><view id="PrimeTimeFunctional" viewBox="1152 928 42 42"/><svg width="42" height="42" viewBox="0 0 42 42" x="1152" y="928" xmlns="http://www.w3.org/2000/svg"><g id="aw_42px_Circle" data-name="42px@Circle"><circle id="awEllipse_10213-4" data-name="Ellipse 10213-4" cx="21" cy="21" r="21" fill="#b130bd"/></g><g id="aw_24px_Icons" data-name="24px@Icons"><path class="awcls-1" d="M20.73 18H19.5a.5.5 0 0 0-.5.5v13a.5.5 0 0 0 .5.5h1.23a1 1 0 0 0 .5-.136l11.033-6.433a.5.5 0 0 0 0-.862l-11.03-6.433A1 1 0 0 0 20.73 18z"/><path class="awcls-1" d="M12 13h18v8.248l2 1.166V12a1 1 0 0 0-1-1H11a1 1 0 0 0-1 1v14a1 1 0 0 0 1 1h6v-2h-5z"/></g></svg><view id="Primetime" viewBox="0 0 1152 1152"/><svg viewBox="0 0 1152 1152" width="1152" height="1152"><path fill="#FF1828" d="M0 576c0 318.1 257.9 576 576 576s576-257.9 576-576S894.1 0 576 0 0 257.9 0 576zm59.4 0C59.4 290.3 290.7 58.8 576 58.8s516.6 231.6 516.6 517.2-231.3 517.2-516.6 517.2S59.4 861.7 59.4 576z"/><path fill="#F9C9CD" d="M883.5 353.4 615.8 209.6c-11.7-6.3-26.2-5.9-37.6.8-11.4 6.8-19 18.9-19 32.3v26.2L485 228.4c-5.8-3.2-11.5-4.1-18-4.7-2.4-.1-7.5-.1-8.5 0-24 2.3-44.3 22-44.3 46.5V506c0 26.3 22.6 47.7 48.8 47.7 9.5 0 16.9-3 22.3-6l217.3-119.4c15.2-8.4 24.8-24.5 24.7-42-.1-17.4-11-33.4-26.4-41.6L576 278.4v-35.7c0-7 5-13.4 10.9-16.9s13.7-3.7 19.8-.4l268 143.8c6.5 3.5 10.5 10 10.5 17.3s-3.7 13.8-10.1 17.3L565.6 574.1 256.3 739.5c-12.3 6.6-19.7 19-19.7 33s7.2 26.3 19.4 33l267.6 147.3c5.7 3.1 11.8 4.7 18 4.7 6.5 0 11.6-1.7 17.5-5.2 11.5-6.8 16.9-18.9 16.9-32.3v-28.5l68.4 36.8c4.3 2.4 10 5.1 18.2 5.1 22.5 0 41.7-18.4 41.7-41.1V656.4c0-20.5-15.1-37.8-34.8-40.8-1.3-.3-2.8-.6-4.2-.6h-2.1c-1.5 0-3 .3-4.4.7-4.3.7-8.6 2.2-12.9 4.5L429.1 736.8c-13.2 7.1-21.5 20.9-21.6 36-.1 15 7.2 28.8 20.4 36.1l131.4 72.8V920c0 7.1-2.7 13.4-8.7 17-5.9 3.5-12.7 3.6-18.7.3L264.4 789.9c-6.4-3.5-10.1-10-10.1-17.3 0-7.4 4-13.8 10.4-17.3l309.5-165.4 309.6-170.4c12.2-6.7 19.5-19.1 19.4-33 0-14.1-7.4-26.4-19.7-33.1zM443.2 772.9c0-1.2.4-3.4 2.8-4.7l211.6-113.7c.6-.3 2.5-1.5 3.1-1.6 3.3-1.6 4.6.5 4.6 3.6v235.8c0 3.1-1.4 5.4-3.9 4.1-.3-.2-1.6-.7-2.1-1L445.5 777.5c-2.2-1.2-2.3-3.1-2.3-4.6z"/></svg><view id="Privacy" viewBox="1194 928 42 42"/><svg width="42" height="42" viewBox="0 0 42 42" x="1194" y="928" xmlns="http://www.w3.org/2000/svg"><g data-name="42px@Circle"><circle data-name="Ellipse 10213-12" cx="21" cy="21" r="21" fill="#5c5ce0"/></g><path d="M31.848 19.844a1.469 1.469 0 0 0-1.091-.471 2.324 2.324 0 0 0-1.531.7c-.262.238-.595.731-1 1.208-1 1.178-1.375 1.529-1.588 1.622a.345.345 0 0 1-.3-.014 1.408 1.408 0 0 1-.7-.963 7.658 7.658 0 0 1-.151-1.617c0-.355-.122-8.09-.124-8.169a1.316 1.316 0 1 0-2.632 0v6.716a.364.364 0 0 1-.728 0v-7.8a1.317 1.317 0 1 0-2.633 0v7.922a.365.365 0 0 1-.729 0v-6.56a1.317 1.317 0 1 0-2.633 0V20.2a.364.364 0 0 1-.728 0v-3.983a1.093 1.093 0 0 0-2.185.007l-.007 2.063c-.008 2.2.012 2.86.012 4.134a19.139 19.139 0 0 0 .177 2.642 17.043 17.043 0 0 0 .867 3.74c.79 1.807 3.287 3.072 6.071 3.072 1.86 0 4.121-1.42 6.572-4.119a17.556 17.556 0 0 0 1.186-1.481l3.371-4.755c.513-.52.875-1.249.504-1.676z" fill="#fff" data-name="24px@Icons"/></svg><view id="ReportMapping" viewBox="1236 928 42 42"/><svg width="42" height="42" viewBox="0 0 42 42" x="1236" y="928" xmlns="http://www.w3.org/2000/svg"><g id="az_42px_Circle" data-name="42px@Circle"><circle id="azEllipse_10213-7" data-name="Ellipse 10213-7" cx="21" cy="21" r="21" fill="#5c5ce0"/></g><g id="az_24px_Icons" data-name="24px@Icons"><path class="azcls-1" d="M13 24h6v1h-6zm0-2h6v1h-6z"/><path class="azcls-1" d="M26.107 21.75a3 3 0 1 0 0-1.5H22v-1.99l4.915-3.11A3 3 0 1 0 26 13a2.944 2.944 0 0 0 .142.864l-4.49 2.836-2.2-2.363a1.044 1.044 0 0 0-.76-.337H11.3a1.359 1.359 0 0 0-1.3 1.406v12.187A1.36 1.36 0 0 0 11.3 29h9.409A1.359 1.359 0 0 0 22 27.593v-2.065l4.141 2.61A2.964 2.964 0 0 0 26 29a3.014 3.014 0 1 0 .914-2.148L22 23.754v-2zM29 20a1 1 0 1 1-1 1 1 1 0 0 1 1-1zm0-8a1 1 0 1 1-1 1 1 1 0 0 1 1-1zM12 27V16h6.266L20 17.866V27zm17 1a1 1 0 1 1-1 1 1 1 0 0 1 1-1z"/></g></svg><view id="UserAdmin" viewBox="1278 928 42 42"/><svg width="42" height="42" viewBox="0 0 42 42" x="1278" y="928" xmlns="http://www.w3.org/2000/svg"><g id="ba_42px_Circle" data-name="42px@Circle"><circle id="baEllipse_10213-19" data-name="Ellipse 10213-19" cx="21" cy="21" r="21" fill="#5c5ce0"/></g><g id="ba_24px_Icons" data-name="24px@Icons"><path class="bacls-1" d="M19 27a8.013 8.013 0 0 1 5.156-7.477 7.813 7.813 0 0 0 .6-2.911c0-3.4-1.944-5.612-4.744-5.612s-4.744 2.212-4.744 5.612a9.4 9.4 0 0 0 2.225 5.614c0 1.035-.017 1.865-1.054 1.955-1.368.119-5.745 1.549-6.427 5.69A1 1 0 0 0 11.024 31h9.05A7.949 7.949 0 0 1 19 27z"/><path class="bacls-1" d="M32.586 26.172h-1.449a4.181 4.181 0 0 0-.612-1.485l1.032-1.032a.415.415 0 0 0 0-.585l-.627-.627a.414.414 0 0 0-.586 0l-1.031 1.031a4.222 4.222 0 0 0-1.486-.612v-1.448a.413.413 0 0 0-.413-.414h-.828a.414.414 0 0 0-.414.414v1.449a4.181 4.181 0 0 0-1.485.612l-1.032-1.032a.413.413 0 0 0-.585 0l-.627.627a.413.413 0 0 0 0 .585l1.032 1.032a4.181 4.181 0 0 0-.612 1.485h-1.449a.414.414 0 0 0-.414.414v.828a.413.413 0 0 0 .414.413h1.449a4.186 4.186 0 0 0 .612 1.486l-1.032 1.032a.414.414 0 0 0 0 .585l.627.627a.415.415 0 0 0 .585 0l1.031-1.032a4.188 4.188 0 0 0 1.485.612v1.449a.414.414 0 0 0 .414.414h.828a.414.414 0 0 0 .414-.414v-1.449a4.188 4.188 0 0 0 1.485-.612l1.031 1.032a.416.416 0 0 0 .586 0l.627-.627a.414.414 0 0 0 0-.585l-1.032-1.032a4.186 4.186 0 0 0 .612-1.486h1.449a.413.413 0 0 0 .415-.413v-.828a.414.414 0 0 0-.414-.414zM27 28.615A1.616 1.616 0 1 1 28.615 27 1.615 1.615 0 0 1 27 28.615z"/></g></svg><view id="UserAnalytics" viewBox="1320 928 42 42"/><svg width="42" height="42" viewBox="0 0 42 42" x="1320" y="928" xmlns="http://www.w3.org/2000/svg"><circle id="bbEllipse_10213-13" data-name="Ellipse 10213-13" cx="21" cy="21" r="21" fill="#864ccc"/><rect class="bbcls-1" x="12" y="22.5" width="2" height="6.5" rx=".5"/><rect class="bbcls-1" x="16" y="18.5" width="2" height="10.5" rx=".5"/><path class="bbcls-1" d="M13 20.25h-2a.75.75 0 0 1 0-1.5h1.663l3.776-4.25a.749.749 0 0 1 .9-.173l3.408 1.7 3.633-5.449a.75.75 0 0 1 1.042-.2l.028.02 3.629 2.722 1.586-.793a.75.75 0 0 1 .67 1.342l-2 1a.748.748 0 0 1-.785-.071l-3.365-2.524-3.561 5.34a.752.752 0 0 1-.959.255l-3.486-1.743L13.561 20a.755.755 0 0 1-.561.25zm14.872 6.309v-1.142a.666.666 0 0 1 .171-.433 5.13 5.13 0 0 0 1.166-3.2c0-2.423-1.285-3.776-3.226-3.776s-3.262 1.406-3.262 3.776a5.181 5.181 0 0 0 1.222 3.2.674.674 0 0 1 .171.434v1.137a.667.667 0 0 1-.582.674c-3.9.339-4.509 3.007-4.509 4.059 0 .117.013.577.022.692h13.913s.012-.575.012-.692c0-1.008-.689-3.667-4.518-4.055a.67.67 0 0 1-.58-.674zM30 18.087V16.5a.5.5 0 0 0-.5-.5h-1a.5.5 0 0 0-.5.5v.058a4.69 4.69 0 0 1 2 1.529z"/><path class="bbcls-1" d="M25.983 16.177H26V15.5a.5.5 0 0 0-.5-.5h-1a.5.5 0 0 0-.5.5v1.056a5.345 5.345 0 0 1 1.983-.379zm-4.234 9.333a7.084 7.084 0 0 1-1.028-3.557 6.805 6.805 0 0 1 .441-2.453H20.5a.5.5 0 0 0-.5.5v6.221a7.173 7.173 0 0 1 1.749-.711z"/></svg><view id="UserHighlight" viewBox="1152 970 42 42"/><svg width="42" height="42" viewBox="0 0 42 42" x="1152" y="970" xmlns="http://www.w3.org/2000/svg"><g data-name="42px@Circle"><circle data-name="Ellipse 10213-8" cx="21" cy="21" r="21" fill="#3da74e"/></g><path d="M29.128 18.8a.576.576 0 0 1-.5-.581v-.834a.576.576 0 0 1 .148-.373 4.418 4.418 0 0 0 1.007-2.76c0-2.089-1.109-3.256-2.786-3.256s-2.818 1.213-2.818 3.256a4.466 4.466 0 0 0 1.056 2.76.576.576 0 0 1 .148.373v.751A9 9 0 0 1 29.769 24H33v-1.7c0-.9-.5-3.2-3.872-3.5zm-12.503-.662v-.749a.576.576 0 0 1 .148-.373 4.418 4.418 0 0 0 1.007-2.76c0-2.089-1.109-3.256-2.786-3.256s-2.818 1.213-2.818 3.256a4.466 4.466 0 0 0 1.056 2.76.576.576 0 0 1 .148.373v.834a.575.575 0 0 1-.5.581C9.507 19.1 9 21.4 9 22.3V24h3.228a9.006 9.006 0 0 1 4.397-5.862zM21 19a7 7 0 1 0 7 7 7 7 0 0 0-7-7zm3.8 10.217a4.1 4.1 0 0 0-2.036-.711.481.481 0 0 1-.417-.483v-.7a.484.484 0 0 1 .123-.311 3.686 3.686 0 0 0 .838-2.3c0-1.74-.923-2.712-2.317-2.712s-2.343 1.01-2.343 2.712a3.727 3.727 0 0 0 .878 2.3.479.479 0 0 1 .123.311v.7a.478.478 0 0 1-.418.483 4.022 4.022 0 0 0-2.05.688 5 5 0 1 1 7.619.028z" style="fill:#fff" data-name="24px@Icons"/></svg><view id="WorkfrontCircle" viewBox="1194 970 42 42"/><svg width="42" height="42" viewBox="0 0 42 42" x="1194" y="970" xmlns="http://www.w3.org/2000/svg"><g data-name="42px@Circle"><circle data-name="Ellipse 10213-2" cx="21" cy="21" r="21" style="fill:#fff"/></g><path d="M27.852 9.105s-2.937-.35-6.84-.35-6.864.35-6.864.35-4.737 6.66-6.064 11.334C13.414 29.699 20.763 34.69 21 34.755c.232-.064 7.18-4.973 12.916-14.316-1.327-4.675-6.064-11.334-6.064-11.334ZM23 27.848h-4l-.725-1.905L21 25.518l2.724.425L23 27.848Zm2.359-2.483a.06.06 0 0 1-.068.042l-3.41-.598-.467-1.366 1.763-1.347a.06.06 0 0 0-.037-.105h-4.27a.06.06 0 0 0-.039.105l1.764 1.347-.467 1.365-3.406.598a.06.06 0 0 1-.068-.042l-2.747-9.544 4.048 2.754-.164 3.041c-.004.069.092.088.115.024l1.668-4.741-5.7-1.952 2.897-1.618 4.233 1.432 4.2-1.432 2.923 1.618-5.692 1.952 1.668 4.74c.023.065.119.046.115-.023l-.164-3.041 4.048-2.754-2.743 9.545Z" style="fill:#d73320" data-name="24px@Icons"/></svg><view id="WorkfrontHero" viewBox="1152 702 100 100"/><svg data-name="18px@Icons" width="100" height="100" viewBox="0 0 100 100" x="1152" y="702" xmlns="http://www.w3.org/2000/svg"><rect width="100" height="100" rx="16" ry="16" fill="#fff"/><path d="M83.95 48.428C80.463 36.14 68.012 18.636 68.012 18.636s-7.722-.92-17.982-.92-18.042.92-18.042.92S19.537 36.141 16.05 48.428c14.008 24.34 33.326 37.46 33.95 37.63.61-.168 18.872-13.071 33.95-37.63Z" fill="#d73320"/><path d="m48.933 56.324-4.636-3.54a.156.156 0 0 1 .1-.278H55.62c.147 0 .213.185.1.278l-4.636 3.54 1.228 3.59 8.964 1.572a.156.156 0 0 0 .177-.11l7.21-25.089-10.638 7.238.43 7.995c.01.18-.242.231-.303.062L53.77 39.119l14.962-5.129-7.687-4.254L50.01 33.5l-11.13-3.764-7.613 4.253 14.98 5.13-4.383 12.463c-.061.17-.313.118-.303-.062l.43-7.995-10.639-7.237 7.221 25.086a.156.156 0 0 0 .177.11l8.954-1.572 1.228-3.588Zm-6.093 6.572 1.906 5.007h10.508l1.907-5.007-7.162-1.117-7.16 1.117z" fill="#fff"/></svg></svg>